<?xml version="1.0" encoding="iso-8859-1"?>
<!-- Uploaded to: SVG Repo, www.svgrepo.com, Generator: SVG Repo Mixer Tools -->
<svg fill="#000000" height="800px" width="800px" version="1.1" id="Layer_1" xmlns="http://www.w3.org/2000/svg" xmlns:xlink="http://www.w3.org/1999/xlink" 
	 viewBox="0 0 512 512" xml:space="preserve">
<g>
	<g>
		<g>
			<path d="M352.579,335.05c-18.27,14.046-69.999,23.347-96.623,23.347c-26.829,0-79.206-9.463-97.024-23.723
				c-3.891-3.132-10.283-1.937-12.766,2.398c-1.527,2.645-1.519,5.905,0.009,8.533c23.211,40.073,64.247,63.991,109.781,63.991
				c45.286,0,86.127-23.654,109.397-63.326c1.57-2.21,2.005-5.103,1.075-7.765C364.508,333.053,356.726,331.244,352.579,335.05z"/>
			<path d="M507.042,122.598c-2.057-0.947-30.037-13.474-77.005-17.382C386.167,54.605,322.978,25.6,255.957,25.6
				s-130.21,29.013-174.08,79.625c-46.916,3.917-74.871,16.427-76.928,17.374C1.929,123.998,0,127.027,0,130.347v28.698
				c0,4.634,3.686,8.414,8.32,8.533c10.607,0.265,13.227,13.884,13.295,14.268c1.835,12.075,4.284,23.177,7.654,33.331
				c-2.441,13.585-3.712,27.307-3.712,40.823c0,127.044,103.356,230.4,230.4,230.4s230.4-103.356,230.4-230.4
				c0-13.466-1.263-27.119-3.678-40.636c3.388-10.172,5.837-21.282,7.68-33.374c0.026-0.137,2.534-14.148,13.32-14.413
				c4.625-0.119,8.32-3.9,8.32-8.533v-28.698C512,127.027,510.063,123.998,507.042,122.598z M255.957,42.667
				c56.431,0,109.961,22.17,149.751,61.431c-26.59-0.29-57.668,2.449-92.407,10.735c-1.067,0.256-2.133,0.521-3.2,0.785
				c-3.763,0.93-7.569,1.929-11.426,2.987c-1.28,0.358-2.56,0.7-3.849,1.067c-4.796,1.374-9.634,2.816-14.549,4.412
				c-7.885,2.551-16.085,3.823-24.277,3.823c-6.007,0-11.972-0.922-17.869-2.295c-2.133-0.495-4.309-0.845-6.409-1.527
				c-4.932-1.596-9.788-3.046-14.601-4.429c-1.246-0.35-2.483-0.683-3.721-1.024c-3.934-1.084-7.825-2.108-11.674-3.055
				c-0.99-0.247-1.988-0.495-2.978-0.725c-34.799-8.303-65.92-11.042-92.535-10.752C145.997,64.836,199.535,42.667,255.957,42.667z
				 M70.767,173.167l25.6-25.6c3.328-3.337,8.73-3.337,12.066,0c3.337,3.336,3.337,8.73,0,12.066l-25.6,25.6
				c-1.664,1.664-3.849,2.5-6.033,2.5c-2.185,0-4.369-0.836-6.033-2.5C67.43,181.897,67.43,176.503,70.767,173.167z
				 M255.957,469.333c-117.632,0-213.333-95.701-213.333-213.333c0-4.275,0.137-8.593,0.401-12.902
				c3.823,5.282,8.311,10.052,13.483,14.37c0.845,0.708,1.741,1.365,2.611,2.039c1.587,1.22,3.217,2.406,4.932,3.533
				c1.374,0.913,2.799,1.792,4.25,2.637c1.314,0.768,2.68,1.502,4.079,2.219c1.826,0.947,3.686,1.869,5.623,2.731
				c1.161,0.512,2.389,0.981,3.593,1.459c2.236,0.896,4.48,1.783,6.861,2.569c1.152,0.375,2.398,0.7,3.584,1.058
				c2.534,0.76,5.069,1.528,7.765,2.176c1.562,0.375,3.268,0.674,4.89,1.015c2.492,0.521,4.915,1.084,7.526,1.519
				c4.378,0.734,8.96,1.365,13.773,1.869c72.533,7.697,108.023-46.029,113.34-81.655c3.14-21.06,14.899-21.248,16.102-21.436
				c0.375,0.017,0.742,0.017,1.118,0c0.06,0.026,12.809-0.631,16.111,21.436c0.316,2.15,0.759,4.378,1.306,6.656
				c0.179,0.725,0.427,1.485,0.623,2.227c0.418,1.562,0.836,3.123,1.357,4.71c0.299,0.913,0.674,1.835,1.007,2.748
				c0.521,1.459,1.041,2.91,1.655,4.378c0.418,1.007,0.905,2.005,1.365,3.021c0.64,1.391,1.271,2.782,1.98,4.173
				c0.546,1.05,1.143,2.099,1.724,3.149c0.751,1.34,1.502,2.679,2.321,4.011c0.666,1.084,1.382,2.15,2.099,3.217
				c0.853,1.28,1.724,2.551,2.645,3.806c0.794,1.084,1.63,2.15,2.483,3.217c0.956,1.195,1.937,2.381,2.961,3.558
				c0.939,1.067,1.903,2.116,2.893,3.166c1.058,1.109,2.142,2.185,3.26,3.26c1.084,1.033,2.185,2.048,3.328,3.046
				c1.152,1.007,2.338,1.971,3.55,2.927c1.237,0.981,2.475,1.946,3.78,2.876c1.229,0.887,2.517,1.715,3.814,2.551
				c1.391,0.896,2.782,1.792,4.25,2.628c1.323,0.76,2.714,1.451,4.087,2.15c1.553,0.794,3.098,1.596,4.719,2.313
				c1.408,0.623,2.901,1.152,4.361,1.715c1.715,0.657,3.413,1.348,5.214,1.929c1.502,0.478,3.098,0.845,4.659,1.263
				c1.869,0.495,3.703,1.05,5.658,1.451c1.681,0.341,3.473,0.538,5.214,0.811c2.705,0.418,5.453,0.776,8.294,0.998
				c2.961,0.222,5.931,0.435,9.045,0.435c0.043,0,0.085-0.009,0.128-0.009c4.369-0.009,8.883-0.23,13.56-0.725
				c4.804-0.503,9.37-1.135,13.747-1.869c2.731-0.452,5.274-1.033,7.868-1.579c1.493-0.324,3.081-0.597,4.531-0.947
				c2.773-0.666,5.376-1.451,7.979-2.227c1.109-0.341,2.278-0.64,3.354-0.998c2.423-0.802,4.719-1.698,6.989-2.611
				c1.16-0.461,2.347-0.913,3.464-1.408c1.963-0.862,3.84-1.801,5.692-2.756c1.374-0.708,2.722-1.434,4.019-2.185
				c1.451-0.845,2.876-1.724,4.25-2.628c1.732-1.135,3.371-2.33,4.966-3.55c0.853-0.666,1.732-1.306,2.552-1.997
				c5.163-4.301,9.66-9.045,13.483-14.302c0.256,4.267,0.393,8.525,0.393,12.766C469.291,373.632,373.589,469.333,255.957,469.333z"
				/>
		</g>
	</g>
</g>
</svg>